<?xml version="1.0"?>
<svg xmlns="http://www.w3.org/2000/svg" xmlns:xlink="http://www.w3.org/1999/xlink" version="1.1" id="Capa_1" x="0px" y="0px" viewBox="0 0 512 512" style="enable-background:new 0 0 512 512;" xml:space="preserve" width="512px" height="512px" class=""><g><g>
	<g>
		<g>
			<path d="M395.2,322.544L345.888,224H102.112l-48,96H0v144h66.272c8.677,34.091,43.348,54.694,77.439,46.017     c22.609-5.754,40.263-23.408,46.017-46.017h132.544c8.677,34.091,43.348,54.694,77.439,46.017     c22.609-5.754,40.263-23.408,46.017-46.017H512V355.936L395.2,322.544z M128,480c-17.673,0-32-14.327-32-32     c0-17.673,14.327-32,32-32s32,14.327,32,32C160,465.673,145.673,480,128,480z M384,480c-17.673,0-32-14.327-32-32     c0-17.673,14.327-32,32-32c17.673,0,32,14.327,32,32C416,465.673,401.673,480,384,480z M480,432h-34.272     c-8.677-34.091-43.348-54.694-77.439-46.017c-22.609,5.754-40.263,23.408-46.017,46.017H189.728     c-8.677-34.091-43.348-54.694-77.439-46.017C89.68,391.737,72.027,409.391,66.272,432H32v-80h96v-32H89.888l32-64h204.224l32,64     H288v32h93.76L480,380.064V432z" data-original="#000000" class="active-path" data-old_color="#000000" fill="#FC7871"/>
			<path d="M320,192h32C351.886,86.009,265.991,0.115,160,0v32C248.326,32.097,319.903,103.675,320,192z" data-original="#000000" class="active-path" data-old_color="#000000" fill="#FC7871"/>
			<path d="M256,192h32c-0.079-70.66-57.34-127.921-128-128v32C212.998,96.053,255.947,139.003,256,192z" data-original="#000000" class="active-path" data-old_color="#000000" fill="#FC7871"/>
			<path d="M192,192h32c0-35.346-28.654-64-64-64v32C177.673,160,192,174.327,192,192z" data-original="#000000" class="active-path" data-old_color="#000000" fill="#FC7871"/>
			<rect x="224" y="320" width="32" height="32" data-original="#000000" class="active-path" data-old_color="#000000" fill="#FC7871"/>
			<rect x="160" y="320" width="32" height="32" data-original="#000000" class="active-path" data-old_color="#000000" fill="#FC7871"/>
		</g>
	</g>
</g></g> </svg>
